# xmcd
#
# Track frame offsets:
#	150
#	14990
#	27450
#	39512
#	56792
#	67300
#	90352
#	103987
#	117135
#	132462
#	143445
#	162620
#	175845
#	190330
#	209217
#	221827
#	235447
#	249252
#	259677
#	270090
#
# Disc length: 3924
#
# Revision: 1
# Processed by: cddbd v1.5.1PL0 Copyright (c) Steve Scherf et al.
# Submitted via: EasyCDDAExtractor 5.0.5.1
# Normalized: r0:DSETVAR1
#
DISCID=380f5214
DTITLE=Various Artist - The Very Best Of Country Music CD1
DYEAR=1900
DGENRE=Country
TTITLE0=The Bellamy Brothers - Let Your Love Flow
TTITLE1=Nilsson - Everybody's Talkin'
TTITLE2=Charlie Rich - The Most Beautiful Girl
TTITLE3=Don McLean - Crying
TTITLE4=Daniel O'Donnell - You Send Me Your Love
TTITLE5=Trish Yearwood - New Kid In Town
TTITLE6=Ricky Skaggs - I Wouldn't Change You If I Could
TTITLE7=Ray Stevens - Misty
TTITLE8=The Bluebells - Young At Heart
TTITLE9=Glenn Campbell - Try A Little Kindness
TTITLE10=Kris Kristofferson - Me And Bobby McGee
TTITLE11=Jennifer Warnes - Right Time Of The Night
TTITLE12=Charley Pride - I Don't Know Why I Love You But I Do
TTITLE13=Jimmy Buffet - Margaritaville
TTITLE14=George Hamilton IV - Early Morning Rain
TTITLE15=Kenny Rogers - Ruby Don' Take Your Love To Town
TTITLE16=Dolly Parton - Coat Of Many Colours
TTITLE17=Ricky Nelson - Hello Mary Lou (Goodbye Heart)
TTITLE18=Crystal Gayle - Oh Lonesome Me
TTITLE19=The Judds - Love Can Build A Bridge
EXTD=
EXTT0=
EXTT1=
EXTT2=
EXTT3=
EXTT4=
EXTT5=
EXTT6=
EXTT7=
EXTT8=
EXTT9=
EXTT10=
EXTT11=
EXTT12=
EXTT13=
EXTT14=
EXTT15=
EXTT16=
EXTT17=
EXTT18=
EXTT19=
PLAYORDER=
